<svg xmlns="http://www.w3.org/2000/svg" viewBox="0 0 243.66 321.28"><defs><style>.cls-1,.cls-2,.cls-5{fill:#94bee6;}.cls-1{stroke:#12100b;stroke-width:3px;}.cls-2{stroke:#1d1d1b;stroke-width:1.5px;}.cls-3{fill:none;}.cls-4{fill:#fff;}.cls-6{fill:#1d1d1b;}</style></defs><g id="txt"><path class="cls-1" d="M21.87,279.73,9.75,267.61V216.08L21.87,204H43.08l12.13,12.12v51.53L43.08,279.73Zm3-15.15H40.05V219.11H24.9Z" transform="translate(-7 -8.22)"/><path class="cls-1" d="M21.87,279.73,9.75,267.61V216.08L21.87,204H43.08l12.13,12.12v51.53L43.08,279.73Zm3-15.15H40.05V219.11H24.9Z" transform="translate(-7 -8.22)"/><path class="cls-1" d="M21.87,279.73,9.75,267.61V216.08L21.87,204H43.08l12.13,12.12v51.53L43.08,279.73Zm3-15.15H40.05V219.11H24.9Z" transform="translate(-7 -8.22)"/><path class="cls-1" d="M72.91,257H88.07v7.58h15.15V249.42H85L72.91,237.3V216.08L85,204h21.21l12.13,12.12v10.61H103.22v-7.58H88.07v15.16h18l12.34,12.12v21.22l-12.13,12.12H85L72.91,267.61Z" transform="translate(-7 -8.22)"/><path class="cls-1" d="M72.91,257H88.07v7.58h15.15V249.42H85L72.91,237.3V216.08L85,204h21.21l12.13,12.12v10.61H103.22v-7.58H88.07v15.16h18l12.34,12.12v21.22l-12.13,12.12H85L72.91,267.61Z" transform="translate(-7 -8.22)"/><path class="cls-1" d="M72.91,257H88.07v7.58h15.15V249.42H85L72.91,237.3V216.08L85,204h21.21l12.13,12.12v10.61H103.22v-7.58H88.07v15.16h18l12.34,12.12v21.22l-12.13,12.12H85L72.91,267.61Z" transform="translate(-7 -8.22)"/><path class="cls-1" d="M134.49,279.73V264.58h7.58V219.11h-7.58V204H164.8v15.15h-7.58v45.47h15.16V257h15.15v22.73Z" transform="translate(-7 -8.22)"/><path class="cls-1" d="M134.49,279.73V264.58h7.58V219.11h-7.58V204H164.8v15.15h-7.58v45.47h15.16V257h15.15v22.73Z" transform="translate(-7 -8.22)"/><path class="cls-1" d="M134.49,279.73V264.58h7.58V219.11h-7.58V204H164.8v15.15h-7.58v45.47h15.16V257h15.15v22.73Z" transform="translate(-7 -8.22)"/><path class="cls-1" d="M214.82,279.73l-12.13-12.12V216.08L214.82,204H236l12.13,12.12v51.53L236,279.73Zm3-15.15H233V219.11H217.85Z" transform="translate(-7 -8.22)"/><path class="cls-1" d="M214.82,279.73l-12.13-12.12V216.08L214.82,204H236l12.13,12.12v51.53L236,279.73Zm3-15.15H233V219.11H217.85Z" transform="translate(-7 -8.22)"/><path class="cls-1" d="M214.82,279.73l-12.13-12.12V216.08L214.82,204H236l12.13,12.12v51.53L236,279.73Zm3-15.15H233V219.11H217.85Z" transform="translate(-7 -8.22)"/><path class="cls-2" d="M7.75,328.75v-6.67h3.33v-20H7.75v-6.67H21.08v6.67H17.75v20h6.66v-3.33h6.67v10Z" transform="translate(-7 -8.22)"/><path class="cls-2" d="M7.75,328.75v-6.67h3.33v-20H7.75v-6.67H21.08v6.67H17.75v20h6.66v-3.33h6.67v10Z" transform="translate(-7 -8.22)"/><path class="cls-2" d="M7.75,328.75v-6.67h3.33v-20H7.75v-6.67H21.08v6.67H17.75v20h6.66v-3.33h6.67v10Z" transform="translate(-7 -8.22)"/><path class="cls-2" d="M40.52,328.75v-5.17h3.34l6.66-28.16h6.67l6.66,28.26h3.34v5.07H56.78v-4.36h.41l-.84-3.34h-5l-.84,3.34h.42v4.36Zm13.34-26.26L50.1,316.11h7.57Z" transform="translate(-7 -8.22)"/><path class="cls-2" d="M40.52,328.75v-5.17h3.34l6.66-28.16h6.67l6.66,28.26h3.34v5.07H56.78v-4.36h.41l-.84-3.34h-5l-.84,3.34h.42v4.36Zm13.34-26.26L50.1,316.11h7.57Z" transform="translate(-7 -8.22)"/><path class="cls-2" d="M40.52,328.75v-5.17h3.34l6.66-28.16h6.67l6.66,28.26h3.34v5.07H56.78v-4.36h.41l-.84-3.34h-5l-.84,3.34h.42v4.36Zm13.34-26.26L50.1,316.11h7.57Z" transform="translate(-7 -8.22)"/><path class="cls-2" d="M80.44,328.75l-5.33-5.33V300.75l5.33-5.33h9.33l5.33,5.33v4.67H88.44v-3.33H81.77v20h6.67v-3.33H95.1v4.67l-5.33,5.33Z" transform="translate(-7 -8.22)"/><path class="cls-2" d="M80.44,328.75l-5.33-5.33V300.75l5.33-5.33h9.33l5.33,5.33v4.67H88.44v-3.33H81.77v20h6.67v-3.33H95.1v4.67l-5.33,5.33Z" transform="translate(-7 -8.22)"/><path class="cls-2" d="M80.44,328.75l-5.33-5.33V300.75l5.33-5.33h9.33l5.33,5.33v4.67H88.44v-3.33H81.77v20h6.67v-3.33H95.1v4.67l-5.33,5.33Z" transform="translate(-7 -8.22)"/><path class="cls-2" d="M104.32,328.75v-6.67h3.33v-20h-3.33v-6.67h18l5.33,5.33v9.34l-2,2,2,2v8H131v6.67H121v-6.67h0v-6.66h-6.66v6.66h0v6.67Zm10-20H121v-6.66h-6.66Z" transform="translate(-7 -8.22)"/><path class="cls-2" d="M104.32,328.75v-6.67h3.33v-20h-3.33v-6.67h18l5.33,5.33v9.34l-2,2,2,2v8H131v6.67H121v-6.67h0v-6.66h-6.66v6.66h0v6.67Zm10-20H121v-6.66h-6.66Z" transform="translate(-7 -8.22)"/><path class="cls-2" d="M104.32,328.75v-6.67h3.33v-20h-3.33v-6.67h18l5.33,5.33v9.34l-2,2,2,2v8H131v6.67H121v-6.67h0v-6.66h-6.66v6.66h0v6.67Zm10-20H121v-6.66h-6.66Z" transform="translate(-7 -8.22)"/><path class="cls-2" d="M144.77,328.75l-5.33-5.33V300.75l5.33-5.33h9.33l5.34,5.33v22.67l-5.34,5.33Zm1.33-6.67h6.67v-20H146.1Z" transform="translate(-7 -8.22)"/><path class="cls-2" d="M144.77,328.75l-5.33-5.33V300.75l5.33-5.33h9.33l5.34,5.33v22.67l-5.34,5.33Zm1.33-6.67h6.67v-20H146.1Z" transform="translate(-7 -8.22)"/><path class="cls-2" d="M144.77,328.75l-5.33-5.33V300.75l5.33-5.33h9.33l5.34,5.33v22.67l-5.34,5.33Zm1.33-6.67h6.67v-20H146.1Z" transform="translate(-7 -8.22)"/><path class="cls-2" d="M168.63,320.11h6.67v2H182v-6.66h-8l-5.34-5.33v-9.34l5.34-5.33h9.33l5.33,5.33v3.5H182v-2.16H175.3v6.66h7.9l5.43,5.34v9.33l-5.33,5.33H174l-5.34-5.33Z" transform="translate(-7 -8.22)"/><path class="cls-2" d="M168.63,320.11h6.67v2H182v-6.66h-8l-5.34-5.33v-9.34l5.34-5.33h9.33l5.33,5.33v3.5H182v-2.16H175.3v6.66h7.9l5.43,5.34v9.33l-5.33,5.33H174l-5.34-5.33Z" transform="translate(-7 -8.22)"/><path class="cls-2" d="M168.63,320.11h6.67v2H182v-6.66h-8l-5.34-5.33v-9.34l5.34-5.33h9.33l5.33,5.33v3.5H182v-2.16H175.3v6.66h7.9l5.43,5.34v9.33l-5.33,5.33H174l-5.34-5.33Z" transform="translate(-7 -8.22)"/><path class="cls-2" d="M197.61,320.11h6.66v2h6.67v-6.66h-8l-5.33-5.33v-9.34l5.33-5.33h9.33l5.33,5.33v3.5h-6.66v-2.16h-6.67v6.66h7.9l5.43,5.34v9.33l-5.33,5.33h-9.33l-5.33-5.33Z" transform="translate(-7 -8.22)"/><path class="cls-2" d="M197.61,320.11h6.66v2h6.67v-6.66h-8l-5.33-5.33v-9.34l5.33-5.33h9.33l5.33,5.33v3.5h-6.66v-2.16h-6.67v6.66h7.9l5.43,5.34v9.33l-5.33,5.33h-9.33l-5.33-5.33Z" transform="translate(-7 -8.22)"/><path class="cls-2" d="M197.61,320.11h6.66v2h6.67v-6.66h-8l-5.33-5.33v-9.34l5.33-5.33h9.33l5.33,5.33v3.5h-6.66v-2.16h-6.67v6.66h7.9l5.43,5.34v9.33l-5.33,5.33h-9.33l-5.33-5.33Z" transform="translate(-7 -8.22)"/><path class="cls-2" d="M226.58,328.75v-6.67h3.33v-20h-3.33v-6.67h23.33v10h-6.67v-3.33h-6.67v6.66h6.67v6.67h-6.67v6.66h6.67v-3.33h6.67v10Z" transform="translate(-7 -8.22)"/><path class="cls-2" d="M226.58,328.75v-6.67h3.33v-20h-3.33v-6.67h23.33v10h-6.67v-3.33h-6.67v6.66h6.67v6.67h-6.67v6.66h6.67v-3.33h6.67v10Z" transform="translate(-7 -8.22)"/><path class="cls-2" d="M226.58,328.75v-6.67h3.33v-20h-3.33v-6.67h23.33v10h-6.67v-3.33h-6.67v6.66h6.67v6.67h-6.67v6.66h6.67v-3.33h6.67v10Z" transform="translate(-7 -8.22)"/></g><g id="Panda"><path class="cls-3" d="M126.86,29.16Z" transform="translate(-7 -8.22)"/><path d="M126.86,29.16h0C126.85,29.11,126.85,29.15,126.86,29.16Z" transform="translate(-7 -8.22)"/><path d="M220.15,95.9l-.44-.28c-9-5-23.34-22.52-30.48-32.46A19.37,19.37,0,0,1,188,61.49c9.75-8.32,14.09-18.37,12.22-28.52-1.7-9.21-6.63-16.94-13.17-20.68a17.35,17.35,0,0,0-12.48-2c-1.25.27-4.67,2.09-7.43,3.88A7.87,7.87,0,0,1,169,11.4l1.47-1.23a1,1,0,0,0-.61-1.84L168,8.24a13.81,13.81,0,0,0-10.32,3.68c-5.56,5.1-7.28,13.83-7.82,18.92a69.15,69.15,0,0,0-23-1.68h0a74.15,74.15,0,0,0-20,2.18c-.48-5-2.14-14.09-7.86-19.33A13.77,13.77,0,0,0,88.65,8.32l-1.92.1a1,1,0,0,0-.62,1.83l1.48,1.23a7.83,7.83,0,0,1,1.87,2.82A35.94,35.94,0,0,0,82,10.41a17.35,17.35,0,0,0-12.48,2C63,16.11,58.08,23.84,56.38,33.06c-1.89,10.25,2.56,20.4,12.54,28.78-.35.5-.68,1-.86,1.2C61,72.89,46.43,90.88,37.28,95.9l-.44.29a1.7,1.7,0,0,0-.79,1.45,1.75,1.75,0,0,0,1.16,1.66A29.3,29.3,0,0,0,49,101.71c-2.44,8.68-6.93,32.76,13.92,56.39l.66.26a1.05,1.05,0,0,0,1.44-1,1,1,0,0,0-.07-.38,13.87,13.87,0,0,1-1.36-6.77,62.55,62.55,0,0,0,6.88,11.86A51.11,51.11,0,0,0,82,173.48,1.79,1.79,0,0,0,84.81,172c0-.06,0-.13,0-.2-.25-2.52-.5-5.15-.73-7.55,2.55,3.59,10.18,14,14.34,16.76l1.38.91a1.25,1.25,0,0,0,1.85-1.49l-.58-1.54a150.74,150.74,0,0,1-5-16.24c4.74,8.84,15.53,21.29,29.81,22.8a39.92,39.92,0,0,0,8.06-.21c17.23-2.58,22.53-14.44,27.05-22.88a148.9,148.9,0,0,1-5,16.24l-.58,1.54a1.25,1.25,0,0,0,1.85,1.49l1.38-.91c4.17-2.72,11.79-13.17,14.34-16.76-.22,2.4-.48,5-.73,7.56,0,.06,0,.11,0,.18a1.79,1.79,0,0,0,2.82,1.45,50.92,50.92,0,0,0,11.54-11.37A62.75,62.75,0,0,0,193.41,150c0,4.42-1.33,6.71-1.37,6.77a1.27,1.27,0,0,0-.07.37,1.07,1.07,0,0,0,1.46,1l.65-.26c20.85-23.63,16.36-47.72,13.93-56.38A29.07,29.07,0,0,0,219.78,99a1.74,1.74,0,0,0,.37-3.1Z" transform="translate(-7 -8.22)"/><path class="cls-4" d="M127,32.53Z" transform="translate(-7 -8.22)"/><path class="cls-4" d="M127,32.53h0C127,32.48,127,32.52,127,32.53Z" transform="translate(-7 -8.22)"/><path class="cls-4" d="M184.12,63.63c-.14-.13-12.31-31.12-56.57-30.19A62.48,62.48,0,0,0,73.18,63.52C66,75.88,42,97.39,42.52,97.48a21,21,0,0,1,2.79.54,43.86,43.86,0,0,0,10.42.91c-7.67,33.38,12.5,50.57,38.09,53.62,13.28,1.59,17.71,17.76,30.27,23.46,1.9.87,7.77-.32,9.38-.58,15.77-2.36,22.79-22.07,27.23-23.35,2.28-.65,8.42-1.87,23.71-6.57,20.42-6.28,18-42.95,16.9-46.85a62.5,62.5,0,0,0,13.11-1.45C215.11,97,194,80.59,184.12,63.63Z" transform="translate(-7 -8.22)"/><path class="cls-5" d="M214.42,97.21h0l-13.67-3.43a.58.58,0,0,0-.61.84c3.25,6.69-2.29,35.86-2.29,35.86-.3-2.79-2.44-5.72-3.69-7.21a.31.31,0,0,0-.54.22c.47,6.18-12.76,22.37-12.76,22.37,1.09-1.71.13-5.46-.45-7.31a.42.42,0,0,0-.78-.05c-2.43,4.81-10.32,8.44-10.32,8.44,1.05-5.26-3.94-33.52-3.94-33.52l-.09,0,.36.08a4.79,4.79,0,0,0,2.34-.2.44.44,0,0,0,0-.82c-2.86-1.32-7-7.77-7-7.77.4,18.35-7.55,42.58-7.55,42.58-10.49,27.13-25.38,26.36-25.38,26.36s-14.14,1.06-24.63-26.06c0,0-7.95-24.23-7.55-42.59,0,0-4.1,6.45-7,7.78a.44.44,0,0,0,0,.82,4.91,4.91,0,0,0,2.34.2l.36-.09-.09,0s-5,28.26-4,33.51c0,0-7.89-3.63-10.32-8.44a.42.42,0,0,0-.78.05c-.57,1.85-1.53,5.6-.45,7.31,0,0-13.22-16.19-12.75-22.37a.31.31,0,0,0-.55-.22c-1.25,1.5-3.38,4.42-3.68,7.22,0,0-5.55-29.18-2.3-35.86a.58.58,0,0,0-.6-.85L42.52,97.48s-.13-.06,0,0c6.24,3,13.14-1.24,10,5.78,0,0-6.31,24.83,7,45.1,0,0-1.84-9.06,1.15-9.77,0,0,2.16-.85,3,3.07,0,0,4.86,16.91,17.19,26.43,0,0-1.85-14.59-.06-14.39,0,0,1.53-.75,2.68,3.09A60.07,60.07,0,0,0,95.29,172.9s-6.08-18.07-2.4-18.88c0,0,.76-.48,2.39.73,0,0,13.22,27.54,32.84,28,20.67,1.66,33.59-28.28,33.59-28.28,1.63-1.22,2.39-.74,2.39-.74,3.67.82-2.4,18.89-2.4,18.89a60.34,60.34,0,0,0,11.73-16.11c1.15-3.84,2.68-3.1,2.68-3.1,1.78-.2-.06,14.39-.06,14.39,12.32-9.51,17.19-26.42,17.19-26.42.87-3.92,3-3.07,3-3.07,3,.71,1.14,9.76,1.14,9.76,13.37-20.27,7.06-45.09,7.06-45.09C201.33,96,207.36,100.05,214.42,97.21Z" transform="translate(-7 -8.22)"/><path class="cls-4" d="M156.88,103.09a83.49,83.49,0,0,1-.81,22.75c-2.31,14.42-7.39,28.21-13.59,36.92-3.12,4.38-8.24,9.27-13.65,9.34-5.73-.14-11.16-5.1-14.48-9.81-6.19-8.77-11.26-22.59-13.55-37a83.35,83.35,0,0,1-.82-22.4,33.8,33.8,0,0,1,3.85-13c3-5.08,7.44-7.45,13.25-7a8.75,8.75,0,0,0,3,4,24.9,24.9,0,0,0,7,3.9l.5.17c-.06,1.16-.18,2.89-.31,4.12A32.68,32.68,0,0,0,123,96c-2.82.68-6.37,1.65-9.21,2.43-1.46.4-3,.84-4.1,1.1-1.61.2-1.88.4-2.1.57l-.24,1.53h0v0l0,.32v1l-.1,2c-3,26.89,4.39,49.14,12.61,58.36,2.78,3.11,5.33,4.92,8.78,5.33V165h0v3.59c3-.39,6-2.22,8.78-5.33,8.22-9.21,15.65-31.45,12.61-58.33l-.1-2.08v-.94l-.06-.35-.24-1.53c-.22-.16-.49-.37-2.11-.57-1.05-.26-2.63-.7-4.09-1.1-2.85-.78-6.39-1.75-9.21-2.43-1.37-.32-2.56-.61-3.55-.75a41.66,41.66,0,0,1-.69-4.12,5.87,5.87,0,0,0,.74-.25,24.64,24.64,0,0,0,7-3.86,8.83,8.83,0,0,0,3-3.89c5.4-.09,9.57,2.33,12.4,7.21A34.25,34.25,0,0,1,156.88,103.09Z" transform="translate(-7 -8.22)"/><path d="M160.78,107.15a33.25,33.25,0,0,0-.53-5.6s-2.09-9.74-4.11-13.19a16.83,16.83,0,0,0-16.91-8.76,5.39,5.39,0,0,1,.69,1.92,4.06,4.06,0,0,1-.11,1.63c5.81-.43,10.27,1.94,13.24,7,1.95,3.32,3.21,7.91,3.83,13.14a82.69,82.69,0,0,1-.81,22.75c-2.3,14.42-7.38,28.22-13.59,36.92-3.11,4.37-8.31,9.25-13.71,9.34-5.71-.18-11.11-5.12-14.42-9.8-6.19-8.78-11.25-22.6-13.55-37a83.35,83.35,0,0,1-.82-22.4,33.68,33.68,0,0,1,3.86-13c3-5.08,7.43-7.45,13.24-7a4.06,4.06,0,0,1-.11-1.63,5.41,5.41,0,0,1,.7-1.92,16.84,16.84,0,0,0-16.92,8.76,36.1,36.1,0,0,0-4.14,13.16,35.05,35.05,0,0,0-.49,5,91.83,91.83,0,0,0,1.15,19.6c2.38,14.89,8.08,29,14.17,38.48,6.85,10.68,16.15,10.68,16.34,10.68h0a12.47,12.47,0,0,0,2.11.21c5.77-.66,10.61-3.55,15.51-10.41,6.5-9.12,11.81-23.49,14.2-38.42A92.71,92.71,0,0,0,160.78,107.15Z" transform="translate(-7 -8.22)"/><path class="cls-6" d="M140.09,79.46h.07c-.06-.11-.13-.2-.19-.3a5.92,5.92,0,0,0-1.4-2,8.17,8.17,0,0,0-2.81-1.56c-.38-.13-.75-.23-1.13-.32a20.52,20.52,0,0,0-5.7-.76h-1a20.59,20.59,0,0,0-5.71.76c-.37.09-.75.19-1.12.32a8.22,8.22,0,0,0-2.82,1.56,5.92,5.92,0,0,0-1.4,2c-.06.1-.13.19-.19.3h.08a3.94,3.94,0,0,0-.27,1.19,6.3,6.3,0,0,0,1.18,3.49A12.17,12.17,0,0,0,120,86.87,24.9,24.9,0,0,0,127,90.76c.17.07,1.49.39,1.66.44l1.24-.44a24.62,24.62,0,0,0,7-3.89,11.92,11.92,0,0,0,2.33-2.73,6.23,6.23,0,0,0,1.18-3.49A4.24,4.24,0,0,0,140.09,79.46Z" transform="translate(-7 -8.22)"/><path class="cls-5" d="M99.65,33.59S92.37,13,73.13,18.48c0,0,17.8-1.69,22.81,16.91Z" transform="translate(-7 -8.22)"/><path class="cls-5" d="M158.53,33.59S165.81,13,185.05,18.48c0,0-17.8-1.69-22.81,16.91Z" transform="translate(-7 -8.22)"/><path d="M173.47,102.8l-.29,0a3.71,3.71,0,0,1-3.18-2.16,1.53,1.53,0,0,1,.42-1.73c5-4.43,7.45-9.48,7.3-15-.3-11.12-11.08-20.72-15.08-23.91a9.19,9.19,0,0,1,3,.27l.6.14a1.52,1.52,0,0,0,1.7-2.23l-.3-.53a7.6,7.6,0,0,0-5.64-4c-6.05-.89-15.16,4.45-27.06,15.87l-.51.49c-.62,1-4.81,1.64-5.65,1.53-1.68-.29-4.34-.93-5-1.54-.11-.08-.28-.25-.52-.48-11.9-11.41-21-16.76-27-15.87a7.62,7.62,0,0,0-5.65,4l-.3.53A1.53,1.53,0,0,0,92,60.34l.59-.15a9.14,9.14,0,0,1,3-.26c-4,3.18-14.78,12.79-15.08,23.91-.14,5.54,2.31,10.59,7.3,15a1.53,1.53,0,0,1,.42,1.73A3.69,3.69,0,0,1,85,102.75l-.28,0a1.54,1.54,0,0,0-1.27,1.9l.08.28a6.32,6.32,0,0,0,4.2,4.36,6.11,6.11,0,0,0,1.72.24c2.08,0,4.42-.94,7.08-2.84.07-1.18.18-2.32.31-3.43-5.46,4.32-9.52,4.19-10.49,4a2.66,2.66,0,0,1-.8-.35,7.4,7.4,0,0,0,4.59-7.45l-.08-.8-.69-.5C83.66,94,80.85,89.29,81,84.2,81.34,72.06,98,61,98.15,60.9l.85-.56-.8-1c0-1.27.24-2.37-.78-3.1a2.74,2.74,0,0,0-.36-.23c7.86.53,20.53,11,25.87,15.68.31.28.53.48.66.58a12,12,0,0,0,4.84,2,12,12,0,0,0,4.83-2c.13-.1.35-.3.66-.58,5.34-4.7,18-15.15,25.87-15.68-.12.07,1.21.5,1.1.59-1,.73-2.24,1.47-2.24,2.74l1,.78-.91.74c.17.11,16.81,11.16,17.16,23.3.14,5.09-2.67,9.78-8.38,14l-.68.5-.09.8c-.19,2,1,4.18,4.89,5.87.2-.39.3-.53.13.06l-.13-.06a9.4,9.4,0,0,1-1.1,1.93c-1,.24-5,.38-10.52-4,.09.78.17,1.56.24,2.37,3.26,2.64,6.07,3.94,8.51,3.93a6.11,6.11,0,0,0,1.72-.24,6.3,6.3,0,0,0,4.21-4.35l.07-.29A1.52,1.52,0,0,0,173.47,102.8Z" transform="translate(-7 -8.22)"/><path d="M170.5,107.25a9.4,9.4,0,0,0,1.1-1.93c-3.84-1.69-5.08-3.84-4.89-5.87l.09-.8.68-.5c5.71-4.17,8.52-8.86,8.38-14-.35-12.14-17-23.19-17.16-23.3l.91-.74-1-.78c0-1.27,1.22-2,2.24-2.74.11-.09-1.22-.52-1.1-.59-7.86.53-20.53,11-25.87,15.68-.31.28-.53.48-.66.58a12,12,0,0,1-4.83,2,12,12,0,0,1-4.84-2c-.13-.1-.35-.3-.66-.58-5.34-4.7-18-15.15-25.87-15.68a2.74,2.74,0,0,1,.36.23c1,.73.78,1.83.78,3.1l.8,1-.85.56C98,61,81.34,72.06,81,84.2c-.14,5.09,2.67,9.78,8.38,14l.69.5.08.8a7.4,7.4,0,0,1-4.59,7.45,2.66,2.66,0,0,0,.8.35c1,.24,5,.37,10.49-4l.34-.27c.83-5.49,1.06-10.33,3.36-14,4.25-6.68,10.93-9.85,19.3-9.19a10.64,10.64,0,0,1,5-3.81,14.76,14.76,0,0,1,3.56-.9,14.8,14.8,0,0,1,3.55.9,10.64,10.64,0,0,1,5,3.81c8.37-.66,15.05,2.51,19.3,9.19,2.31,3.62,2.53,8.46,3.36,14l.31.24C165.46,107.63,169.53,107.49,170.5,107.25Z" transform="translate(-7 -8.22)"/><path d="M171.6,105.32l.13.06C171.9,104.79,171.8,104.93,171.6,105.32Z" transform="translate(-7 -8.22)"/><ellipse class="cls-4" cx="153.1" cy="76.99" rx="3.03" ry="4.49" transform="translate(68.75 221.68) rotate(-89.87)"/><ellipse class="cls-4" cx="106.27" cy="76.88" rx="3.03" ry="4.49" transform="translate(22.15 174.75) rotate(-89.87)"/><path class="cls-4" d="M122.29,79.81a11.91,11.91,0,0,1,11.28.29c1.15.6,5.49-.68,3.9-1.51a20.15,20.15,0,0,0-18.65.21c-.94.51-.51,1,.17,1.42.86.47,2.5,0,3.3-.41Z" transform="translate(-7 -8.22)"/><circle class="cls-6" cx="146.1" cy="68.77" r="1.1"/><circle class="cls-6" cx="99.27" cy="68.66" r="1.1"/><path d="M128.49,167.62" transform="translate(-7 -8.22)"/><path d="M149.17,99.19l-19.6-4.93-.3-4.12h-1.55l-.3,4.12-19.6,4.93s-7,58.34,20.67,68.43C156.15,157.53,149.17,99.19,149.17,99.19Z" transform="translate(-7 -8.22)"/><path class="cls-4" d="M147.73,121.38a1,1,0,0,1,0,.18h0A1.09,1.09,0,0,0,147.73,121.38Z" transform="translate(-7 -8.22)"/><path class="cls-4" d="M147.73,121.29h0s0,.06,0,.09Z" transform="translate(-7 -8.22)"/><path class="cls-4" d="M147.73,121.29v.09a1.09,1.09,0,0,1,0,.18h-.16a1.77,1.77,0,0,0,0-.24.06.06,0,0,0,0,0Z" transform="translate(-7 -8.22)"/><path class="cls-4" d="M146.7,121.69a1.33,1.33,0,0,1,.45-1,.31.31,0,0,1,.31,0c.15.08.24.3.27.64h-.17a.06.06,0,0,1,0,0c0-.4-.14-.5-.18-.52a.12.12,0,0,0-.13,0,1.28,1.28,0,0,0-.37,1h0a.76.76,0,0,1,0-.15Z" transform="translate(-7 -8.22)"/><path class="cls-4" d="M146.87,121.71a.76.76,0,0,0,0,.15h-.17a1.09,1.09,0,0,1,0-.18Z" transform="translate(-7 -8.22)"/><path class="cls-4" d="M147.72,121.56c-.79,11.05-3,21-6.41,28.69s-7.85,12.65-12.66,13.93l0-.17,0,0c4.74-1.27,9-6,12.49-13.81s5.65-17.74,6.41-28.86a1.77,1.77,0,0,1,0,.24Z" transform="translate(-7 -8.22)"/><path class="cls-4" d="M140.6,149.12c3.25-7.36,5.36-16.85,6.09-27.43h0a1.09,1.09,0,0,0,0,.18h.17c-.74,10.54-2.85,20-6.1,27.33s-7.44,12-12,13.23l.05-.17-.06,0C133.24,161,137.34,156.5,140.6,149.12Z" transform="translate(-7 -8.22)"/><path class="cls-4" d="M128.8,162.25l-.05.17h0l0-.17.06,0Z" transform="translate(-7 -8.22)"/><polygon class="cls-4" points="121.75 154.2 121.75 154.21 121.75 154.21 121.75 154.2"/><path class="cls-4" d="M128.75,162.43h0Z" transform="translate(-7 -8.22)"/><path class="cls-4" d="M128.7,164l0,.17h0l0-.17.07,0Z" transform="translate(-7 -8.22)"/><polygon class="cls-4" points="121.65 155.96 121.65 155.96 121.65 155.96 121.65 155.96"/><path class="cls-4" d="M128.65,164.19h0Z" transform="translate(-7 -8.22)"/><path class="cls-4" d="M110.92,121.62c.68,10.56,2.75,20,6,27.45s7.34,11.93,11.83,13.16l-.06,0,0,.17c-4.56-1.23-8.71-5.82-12-13.28s-5.33-16.93-6-27.52h.18Z" transform="translate(-7 -8.22)"/><polygon class="cls-4" points="103.92 113.39 103.92 113.39 103.83 113.39 103.92 113.39"/><path class="cls-4" d="M116.18,150.12c-3.41-7.77-5.59-17.73-6.31-28.82h0c0-.55.16-.69.22-.73a.23.23,0,0,1,.23,0,1.25,1.25,0,0,1,.42,1.05h0c.68,10.59,2.76,20.1,6,27.52s7.42,12.05,12,13.28h0c4.57-1.21,8.72-5.78,12-13.23s5.36-16.79,6.1-27.33h0a1.28,1.28,0,0,1,.37-1,.12.12,0,0,1,.13,0s.15.12.18.52c-.76,11.12-3,21.11-6.41,28.86s-7.75,12.54-12.49,13.81C123.91,162.7,119.6,157.9,116.18,150.12Z" transform="translate(-7 -8.22)"/><path class="cls-4" d="M110.74,121.62a1.25,1.25,0,0,0-.42-1.05.23.23,0,0,0-.23,0c-.06,0-.21.18-.22.73,0,0,0-.07,0-.1h-.17c0-.52.18-.72.31-.8a.4.4,0,0,1,.41,0,1.39,1.39,0,0,1,.51,1.19h-.18Z" transform="translate(-7 -8.22)"/><path class="cls-4" d="M109.86,121.19s0,.06,0,.1h-.18v-.1Z" transform="translate(-7 -8.22)"/><path class="cls-4" d="M128.63,164.18c-4.8-1.3-9.17-6.14-12.61-14s-5.62-17.84-6.34-29h0v.1h.18c.72,11.09,2.9,21,6.31,28.82s7.73,12.58,12.47,13.87l-.07,0Z" transform="translate(-7 -8.22)"/><path class="cls-4" d="M146.94,105v-.08a107.07,107.07,0,0,0-37.58-.05h-.08c-.27,2.82.79,8,2.27,9.42a1.13,1.13,0,0,0,.8.38h.12l0-.24v0a23.9,23.9,0,0,1,0-5.23,79.52,79.52,0,0,1,31.22,0,22.43,22.43,0,0,1,0,5.32l0,.23h.12a1.15,1.15,0,0,0,.81-.37C146.08,112.91,147.17,107.8,146.94,105Z" transform="translate(-7 -8.22)"/></g></svg>